<?xml version="1.0" encoding="utf-8" standalone="no"?>
<!DOCTYPE svg PUBLIC "-//W3C//DTD SVG 1.1//EN"
  "http://www.w3.org/Graphics/SVG/1.1/DTD/svg11.dtd">
<svg xmlns:xlink="http://www.w3.org/1999/xlink" width="432pt" height="432pt" viewBox="0 0 432 432" xmlns="http://www.w3.org/2000/svg" version="1.1">
 <metadata>
  <rdf:RDF xmlns:dc="http://purl.org/dc/elements/1.1/" xmlns:cc="http://creativecommons.org/ns#" xmlns:rdf="http://www.w3.org/1999/02/22-rdf-syntax-ns#">
   <cc:Work>
    <dc:type rdf:resource="http://purl.org/dc/dcmitype/StillImage"/>
    <dc:date>2026-10-04T10:29:12.425667</dc:date>
    <dc:format>image/svg+xml</dc:format>
    <dc:creator>
     <cc:Agent>
      <dc:title>Matplotlib v3.11.2, https://matplotlib.org/</dc:title>
     </cc:Agent>
    </dc:creator>
   </cc:Work>
  </rdf:RDF>
 </metadata>
 <defs>
  <style type="text/css">*{stroke-linejoin: round; stroke-linecap: butt}</style>
 </defs>
 <g id="figure_1">
  <g id="patch_1">
   <path d="M 0 432 
L 432 432 
L 432 0 
L 0 0 
z
" style="fill: #ffffff"/>
  </g>
  <g id="axes_1">
   <g id="patch_2">
    <path d="M 81.9 356.76 
L 360.9 356.76 
L 360.9 79.56 
L 81.9 79.56 
L 81.9 356.76 
z
" clip-path="url(#pe90ff86497)" style="fill: none; stroke: #969696; stroke-width: 1.5; stroke-linejoin: miter"/>
   </g>
   <g id="patch_3">
    <path d="M 329.456235 -125.533197 
C 332.02539 -125.533197 334.489665 -126.547347 336.306332 -128.352294 
C 338.122999 -130.15724 339.143735 -132.605617 339.143735 -135.158197 
C 339.143735 -137.710777 338.122999 -140.159153 336.306332 -141.964099 
C 334.489665 -143.769046 332.02539 -144.783197 329.456235 -144.783197 
C 326.88708 -144.783197 324.422805 -143.769046 322.606138 -141.964099 
C 320.789471 -140.159153 319.768735 -137.710777 319.768735 -135.158197 
C 319.768735 -132.605617 320.789471 -130.15724 322.606138 -128.352294 
C 324.422805 -126.547347 326.88708 -125.533197 329.456235 -125.533197 
z
" clip-path="url(#pe90ff86497)" style="fill: #0871b7; fill-opacity: 0.752941; stroke: #231f20; stroke-linejoin: miter"/>
   </g>
   <g id="patch_4">
    <path d="M 329.456235 -15.624329 
C 332.705988 -15.624329 335.823077 -16.90714 338.120999 -19.190237 
C 340.418921 -21.473333 341.710061 -24.570312 341.710061 -27.799098 
C 341.710061 -31.027885 340.418921 -34.124863 338.120999 -36.40796 
C 335.823077 -38.691057 332.705988 -39.973867 329.456235 -39.973867 
C 326.206483 -39.973867 323.089394 -38.691057 320.791472 -36.40796 
C 318.49355 -34.124863 317.202409 -31.027885 317.202409 -27.799098 
C 317.202409 -24.570312 318.49355 -21.473333 320.791472 -19.190237 
C 323.089394 -16.90714 326.206483 -15.624329 329.456235 -15.624329 
z
" clip-path="url(#pe90ff86497)" style="fill: #0871b7; fill-opacity: 0.752941; stroke: #231f20; stroke-linejoin: miter"/>
   </g>
   <g id="patch_5">
    <path d="M 221.4 -15.624329 
C 224.649753 -15.624329 227.766841 -16.90714 230.064763 -19.190237 
C 232.362686 -21.473333 233.653826 -24.570312 233.653826 -27.799098 
C 233.653826 -31.027885 232.362686 -34.124863 230.064763 -36.40796 
C 227.766841 -38.691057 224.649753 -39.973867 221.4 -39.973867 
C 218.150247 -39.973867 215.033159 -38.691057 212.735237 -36.40796 
C 210.437314 -34.124863 209.146174 -31.027885 209.146174 -27.799098 
C 209.146174 -24.570312 210.437314 -21.473333 212.735237 -19.190237 
C 215.033159 -16.90714 218.150247 -15.624329 221.4 -15.624329 
z
" clip-path="url(#pe90ff86497)" style="fill: #0871b7; fill-opacity: 0.752941; stroke: #231f20; stroke-linejoin: miter"/>
   </g>
   <g id="patch_6">
    <path d="M 329.456235 89.185 
C 332.02539 89.185 334.489665 88.170849 336.306332 86.365903 
C 338.122999 84.560956 339.143735 82.11258 339.143735 79.56 
C 339.143735 77.00742 338.122999 74.559044 336.306332 72.754097 
C 334.489665 70.949151 332.02539 69.935 329.456235 69.935 
C 326.88708 69.935 324.422805 70.949151 322.606138 72.754097 
C 320.789471 74.559044 319.768735 77.00742 319.768735 79.56 
C 319.768735 82.11258 320.789471 84.560956 322.606138 86.365903 
C 324.422805 88.170849 326.88708 89.185 329.456235 89.185 
z
" clip-path="url(#pe90ff86497)" style="fill: #0871b7; fill-opacity: 0.752941; stroke: #231f20; stroke-linejoin: miter"/>
   </g>
   <g id="patch_7">
    <path d="M 113.343765 89.185 
C 115.91292 89.185 118.377195 88.170849 120.193862 86.365903 
C 122.010529 84.560956 123.031265 82.11258 123.031265 79.56 
C 123.031265 77.00742 122.010529 74.559044 120.193862 72.754097 
C 118.377195 70.949151 115.91292 69.935 113.343765 69.935 
C 110.77461 69.935 108.310335 70.949151 106.493668 72.754097 
C 104.677001 74.559044 103.656265 77.00742 103.656265 79.56 
C 103.656265 82.11258 104.677001 84.560956 106.493668 86.365903 
C 108.310335 88.170849 110.77461 89.185 113.343765 89.185 
z
" clip-path="url(#pe90ff86497)" style="fill: #0871b7; fill-opacity: 0.752941; stroke: #231f20; stroke-linejoin: miter"/>
   </g>
   <g id="patch_8">
    <path d="M 221.4 94.96 
C 225.510648 94.96 229.453488 93.337359 232.360155 90.449444 
C 235.266822 87.56153 236.9 83.644128 236.9 79.56 
C 236.9 75.475872 235.266822 71.55847 232.360155 68.670556 
C 229.453488 65.782641 225.510648 64.16 221.4 64.16 
C 217.289352 64.16 213.346512 65.782641 210.439845 68.670556 
C 207.533178 71.55847 205.9 75.475872 205.9 79.56 
C 205.9 83.644128 207.533178 87.56153 210.439845 90.449444 
C 213.346512 93.337359 217.289352 94.96 221.4 94.96 
z
" clip-path="url(#pe90ff86497)" style="fill: #0871b7; fill-opacity: 0.752941; stroke: #231f20; stroke-linejoin: miter"/>
   </g>
   <g id="patch_9">
    <path d="M 113.343765 303.903197 
C 115.91292 303.903197 118.377195 302.889046 120.193862 301.084099 
C 122.010529 299.279153 123.031265 296.830777 123.031265 294.278197 
C 123.031265 291.725617 122.010529 289.27724 120.193862 287.472294 
C 118.377195 285.667347 115.91292 284.653197 113.343765 284.653197 
C 110.77461 284.653197 108.310335 285.667347 106.493668 287.472294 
C 104.677001 289.27724 103.656265 291.725617 103.656265 294.278197 
C 103.656265 296.830777 104.677001 299.279153 106.493668 301.084099 
C 108.310335 302.889046 110.77461 303.903197 113.343765 303.903197 
z
" clip-path="url(#pe90ff86497)" style="fill: #0871b7; fill-opacity: 0.752941; stroke: #231f20; stroke-linejoin: miter"/>
   </g>
   <g id="patch_10">
    <path d="M 113.343765 199.093867 
C 116.593517 199.093867 119.710606 197.811057 122.008528 195.52796 
C 124.30645 193.244863 125.597591 190.147885 125.597591 186.919098 
C 125.597591 183.690312 124.30645 180.593333 122.008528 178.310237 
C 119.710606 176.02714 116.593517 174.744329 113.343765 174.744329 
C 110.094012 174.744329 106.976923 176.02714 104.679001 178.310237 
C 102.381079 180.593333 101.089939 183.690312 101.089939 186.919098 
C 101.089939 190.147885 102.381079 193.244863 104.679001 195.52796 
C 106.976923 197.811057 110.094012 199.093867 113.343765 199.093867 
z
" clip-path="url(#pe90ff86497)" style="fill: #0871b7; fill-opacity: 0.752941; stroke: #231f20; stroke-linejoin: miter"/>
   </g>
   <g id="patch_11">
    <path d="M 221.4 199.093867 
C 224.649753 199.093867 227.766841 197.811057 230.064763 195.52796 
C 232.362686 193.244863 233.653826 190.147885 233.653826 186.919098 
C 233.653826 183.690312 232.362686 180.593333 230.064763 178.310237 
C 227.766841 176.02714 224.649753 174.744329 221.4 174.744329 
C 218.150247 174.744329 215.033159 176.02714 212.735237 178.310237 
C 210.437314 180.593333 209.146174 183.690312 209.146174 186.919098 
C 209.146174 190.147885 210.437314 193.244863 212.735237 195.52796 
C 215.033159 197.811057 218.150247 199.093867 221.4 199.093867 
z
" clip-path="url(#pe90ff86497)" style="fill: #0871b7; fill-opacity: 0.752941; stroke: #231f20; stroke-linejoin: miter"/>
   </g>
  </g>
 </g>
 <defs>
  <clipPath id="pe90ff86497">
   <rect x="54" y="51.84" width="334.8" height="332.64"/>
  </clipPath>
 </defs>
</svg>
