<?xml version="1.0" encoding="utf-8" standalone="no"?>
<!DOCTYPE svg PUBLIC "-//W3C//DTD SVG 1.1//EN"
  "http://www.w3.org/Graphics/SVG/1.1/DTD/svg11.dtd">
<svg xmlns:xlink="http://www.w3.org/1999/xlink" width="432pt" height="432pt" viewBox="0 0 432 432" xmlns="http://www.w3.org/2000/svg" version="1.1">
 <metadata>
  <rdf:RDF xmlns:dc="http://purl.org/dc/elements/1.1/" xmlns:cc="http://creativecommons.org/ns#" xmlns:rdf="http://www.w3.org/1999/02/22-rdf-syntax-ns#">
   <cc:Work>
    <dc:type rdf:resource="http://purl.org/dc/dcmitype/StillImage"/>
    <dc:date>2026-10-04T10:29:16.377983</dc:date>
    <dc:format>image/svg+xml</dc:format>
    <dc:creator>
     <cc:Agent>
      <dc:title>Matplotlib v3.11.2, https://matplotlib.org/</dc:title>
     </cc:Agent>
    </dc:creator>
   </cc:Work>
  </rdf:RDF>
 </metadata>
 <defs>
  <style type="text/css">*{stroke-linejoin: round; stroke-linecap: butt}</style>
 </defs>
 <g id="figure_1">
  <g id="patch_1">
   <path d="M 0 432 
L 432 432 
L 432 0 
L 0 0 
z
" style="fill: #ffffff"/>
  </g>
  <g id="axes_1">
   <g id="patch_2">
    <path d="M 81.9 356.76 
L 360.9 356.76 
L 360.9 79.56 
L 81.9 79.56 
L 81.9 356.76 
z
" clip-path="url(#p10e03a03c5)" style="fill: none; stroke: #969696; stroke-width: 1.5; stroke-linejoin: miter"/>
   </g>
   <g id="patch_3">
    <path d="M 360.9 -195.94875 
C 361.351437 -195.94875 361.784446 -196.126951 362.10366 -196.444106 
C 362.422874 -196.761261 362.602232 -197.191475 362.602232 -197.64 
C 362.602232 -198.088525 362.422874 -198.518739 362.10366 -198.835894 
C 361.784446 -199.153049 361.351437 -199.33125 360.9 -199.33125 
C 360.448563 -199.33125 360.015554 -199.153049 359.69634 -198.835894 
C 359.377126 -198.518739 359.197768 -198.088525 359.197768 -197.64 
C 359.197768 -197.191475 359.377126 -196.761261 359.69634 -196.444106 
C 360.015554 -196.126951 360.448563 -195.94875 360.9 -195.94875 
z
" clip-path="url(#p10e03a03c5)" style="fill: #0871b7; fill-opacity: 0.752941; stroke: #231f20; stroke-linejoin: miter"/>
   </g>
   <g id="patch_4">
    <path d="M 360.9 -147.558114 
C 361.936173 -147.558114 362.930047 -147.967134 363.662732 -148.695092 
C 364.395417 -149.42305 364.807093 -150.410512 364.807093 -151.44 
C 364.807093 -152.469488 364.395417 -153.45695 363.662732 -154.184908 
C 362.930047 -154.912866 361.936173 -155.321886 360.9 -155.321886 
C 359.863827 -155.321886 358.869953 -154.912866 358.137268 -154.184908 
C 357.404583 -153.45695 356.992907 -152.469488 356.992907 -151.44 
C 356.992907 -150.410512 357.404583 -149.42305 358.137268 -148.695092 
C 358.869953 -147.967134 359.863827 -147.558114 360.9 -147.558114 
z
" clip-path="url(#p10e03a03c5)" style="fill: #0871b7; fill-opacity: 0.752941; stroke: #231f20; stroke-linejoin: miter"/>
   </g>
   <g id="patch_5">
    <path d="M 314.4 -147.558114 
C 315.436173 -147.558114 316.430047 -147.967134 317.162732 -148.695092 
C 317.895417 -149.42305 318.307093 -150.410512 318.307093 -151.44 
C 318.307093 -152.469488 317.895417 -153.45695 317.162732 -154.184908 
C 316.430047 -154.912866 315.436173 -155.321886 314.4 -155.321886 
C 313.363827 -155.321886 312.369953 -154.912866 311.637268 -154.184908 
C 310.904583 -153.45695 310.492907 -152.469488 310.492907 -151.44 
C 310.492907 -150.410512 310.904583 -149.42305 311.637268 -148.695092 
C 312.369953 -147.967134 313.363827 -147.558114 314.4 -147.558114 
z
" clip-path="url(#p10e03a03c5)" style="fill: #0871b7; fill-opacity: 0.752941; stroke: #231f20; stroke-linejoin: miter"/>
   </g>
   <g id="patch_6">
    <path d="M 360.9 -103.867546 
C 361.266343 -103.867546 361.61773 -104.012157 361.876773 -104.269529 
C 362.135817 -104.526901 362.281366 -104.876021 362.281366 -105.24 
C 362.281366 -105.603979 362.135817 -105.953099 361.876773 -106.210471 
C 361.61773 -106.467843 361.266343 -106.612454 360.9 -106.612454 
C 360.533657 -106.612454 360.18227 -106.467843 359.923227 -106.210471 
C 359.664183 -105.953099 359.518634 -105.603979 359.518634 -105.24 
C 359.518634 -104.876021 359.664183 -104.526901 359.923227 -104.269529 
C 360.18227 -104.012157 360.533657 -103.867546 360.9 -103.867546 
z
" clip-path="url(#p10e03a03c5)" style="fill: #0871b7; fill-opacity: 0.752941; stroke: #231f20; stroke-linejoin: miter"/>
   </g>
   <g id="patch_7">
    <path d="M 314.4 -96.33 
C 316.778304 -96.33 319.059518 -97.268814 320.741233 -98.939679 
C 322.422947 -100.610543 323.367857 -102.87704 323.367857 -105.24 
C 323.367857 -107.60296 322.422947 -109.869457 320.741233 -111.540321 
C 319.059518 -113.211186 316.778304 -114.15 314.4 -114.15 
C 312.021696 -114.15 309.740482 -113.211186 308.058767 -111.540321 
C 306.377053 -109.869457 305.432143 -107.60296 305.432143 -105.24 
C 305.432143 -102.87704 306.377053 -100.610543 308.058767 -98.939679 
C 309.740482 -97.268814 312.021696 -96.33 314.4 -96.33 
z
" clip-path="url(#p10e03a03c5)" style="fill: #0871b7; fill-opacity: 0.752941; stroke: #231f20; stroke-linejoin: miter"/>
   </g>
   <g id="patch_8">
    <path d="M 267.9 -103.867546 
C 268.266343 -103.867546 268.61773 -104.012157 268.876773 -104.269529 
C 269.135817 -104.526901 269.281366 -104.876021 269.281366 -105.24 
C 269.281366 -105.603979 269.135817 -105.953099 268.876773 -106.210471 
C 268.61773 -106.467843 268.266343 -106.612454 267.9 -106.612454 
C 267.533657 -106.612454 267.18227 -106.467843 266.923227 -106.210471 
C 266.664183 -105.953099 266.518634 -105.603979 266.518634 -105.24 
C 266.518634 -104.876021 266.664183 -104.526901 266.923227 -104.269529 
C 267.18227 -104.012157 267.533657 -103.867546 267.9 -103.867546 
z
" clip-path="url(#p10e03a03c5)" style="fill: #0871b7; fill-opacity: 0.752941; stroke: #231f20; stroke-linejoin: miter"/>
   </g>
   <g id="patch_9">
    <path d="M 360.9 -54.683875 
C 362.06276 -54.683875 363.178052 -55.142864 364.000247 -55.959754 
C 364.822442 -56.776645 365.284412 -57.884742 365.284412 -59.04 
C 365.284412 -60.195258 364.822442 -61.303355 364.000247 -62.120246 
C 363.178052 -62.937136 362.06276 -63.396125 360.9 -63.396125 
C 359.73724 -63.396125 358.621948 -62.937136 357.799753 -62.120246 
C 356.977558 -61.303355 356.515588 -60.195258 356.515588 -59.04 
C 356.515588 -57.884742 356.977558 -56.776645 357.799753 -55.959754 
C 358.621948 -55.142864 359.73724 -54.683875 360.9 -54.683875 
z
" clip-path="url(#p10e03a03c5)" style="fill: #0871b7; fill-opacity: 0.752941; stroke: #231f20; stroke-linejoin: miter"/>
   </g>
   <g id="patch_10">
    <path d="M 314.4 -55.889839 
C 315.240857 -55.889839 316.047388 -56.22176 316.641964 -56.8125 
C 317.23654 -57.40324 317.570616 -58.204568 317.570616 -59.04 
C 317.570616 -59.875432 317.23654 -60.67676 316.641964 -61.2675 
C 316.047388 -61.85824 315.240857 -62.190161 314.4 -62.190161 
C 313.559143 -62.190161 312.752612 -61.85824 312.158036 -61.2675 
C 311.56346 -60.67676 311.229384 -59.875432 311.229384 -59.04 
C 311.229384 -58.204568 311.56346 -57.40324 312.158036 -56.8125 
C 312.752612 -56.22176 313.559143 -55.889839 314.4 -55.889839 
z
" clip-path="url(#p10e03a03c5)" style="fill: #0871b7; fill-opacity: 0.752941; stroke: #231f20; stroke-linejoin: miter"/>
   </g>
   <g id="patch_11">
    <path d="M 267.9 -55.889839 
C 268.740857 -55.889839 269.547388 -56.22176 270.141964 -56.8125 
C 270.73654 -57.40324 271.070616 -58.204568 271.070616 -59.04 
C 271.070616 -59.875432 270.73654 -60.67676 270.141964 -61.2675 
C 269.547388 -61.85824 268.740857 -62.190161 267.9 -62.190161 
C 267.059143 -62.190161 266.252612 -61.85824 265.658036 -61.2675 
C 265.06346 -60.67676 264.729384 -59.875432 264.729384 -59.04 
C 264.729384 -58.204568 265.06346 -57.40324 265.658036 -56.8125 
C 266.252612 -56.22176 267.059143 -55.889839 267.9 -55.889839 
z
" clip-path="url(#p10e03a03c5)" style="fill: #0871b7; fill-opacity: 0.752941; stroke: #231f20; stroke-linejoin: miter"/>
   </g>
   <g id="patch_12">
    <path d="M 221.4 -54.683875 
C 222.56276 -54.683875 223.678052 -55.142864 224.500247 -55.959754 
C 225.322442 -56.776645 225.784412 -57.884742 225.784412 -59.04 
C 225.784412 -60.195258 225.322442 -61.303355 224.500247 -62.120246 
C 223.678052 -62.937136 222.56276 -63.396125 221.4 -63.396125 
C 220.23724 -63.396125 219.121948 -62.937136 218.299753 -62.120246 
C 217.477558 -61.303355 217.015588 -60.195258 217.015588 -59.04 
C 217.015588 -57.884742 217.477558 -56.776645 218.299753 -55.959754 
C 219.121948 -55.142864 220.23724 -54.683875 221.4 -54.683875 
z
" clip-path="url(#p10e03a03c5)" style="fill: #0871b7; fill-opacity: 0.752941; stroke: #231f20; stroke-linejoin: miter"/>
   </g>
   <g id="patch_13">
    <path d="M 360.9 -11.467546 
C 361.266343 -11.467546 361.61773 -11.612157 361.876773 -11.869529 
C 362.135817 -12.126901 362.281366 -12.476021 362.281366 -12.84 
C 362.281366 -13.203979 362.135817 -13.553099 361.876773 -13.810471 
C 361.61773 -14.067843 361.266343 -14.212454 360.9 -14.212454 
C 360.533657 -14.212454 360.18227 -14.067843 359.923227 -13.810471 
C 359.664183 -13.553099 359.518634 -13.203979 359.518634 -12.84 
C 359.518634 -12.476021 359.664183 -12.126901 359.923227 -11.869529 
C 360.18227 -11.612157 360.533657 -11.467546 360.9 -11.467546 
z
" clip-path="url(#p10e03a03c5)" style="fill: #0871b7; fill-opacity: 0.752941; stroke: #231f20; stroke-linejoin: miter"/>
   </g>
   <g id="patch_14">
    <path d="M 314.4 -2.84149 
C 317.068854 -2.84149 319.628758 -3.894996 321.515923 -5.769986 
C 323.403088 -7.644976 324.463435 -10.188364 324.463435 -12.84 
C 324.463435 -15.491636 323.403088 -18.035024 321.515923 -19.910014 
C 319.628758 -21.785004 317.068854 -22.83851 314.4 -22.83851 
C 311.731146 -22.83851 309.171242 -21.785004 307.284077 -19.910014 
C 305.396912 -18.035024 304.336565 -15.491636 304.336565 -12.84 
C 304.336565 -10.188364 305.396912 -7.644976 307.284077 -5.769986 
C 309.171242 -3.894996 311.731146 -2.84149 314.4 -2.84149 
z
" clip-path="url(#p10e03a03c5)" style="fill: #0871b7; fill-opacity: 0.752941; stroke: #231f20; stroke-linejoin: miter"/>
   </g>
   <g id="patch_15">
    <path d="M 267.9 -11.72625 
C 268.197288 -11.72625 268.48244 -11.843602 268.692654 -12.05246 
C 268.902868 -12.261318 269.020982 -12.54463 269.020982 -12.84 
C 269.020982 -13.13537 268.902868 -13.418682 268.692654 -13.62754 
C 268.48244 -13.836398 268.197288 -13.95375 267.9 -13.95375 
C 267.602712 -13.95375 267.31756 -13.836398 267.107346 -13.62754 
C 266.897132 -13.418682 266.779018 -13.13537 266.779018 -12.84 
C 266.779018 -12.54463 266.897132 -12.261318 267.107346 -12.05246 
C 267.31756 -11.843602 267.602712 -11.72625 267.9 -11.72625 
z
" clip-path="url(#p10e03a03c5)" style="fill: #0871b7; fill-opacity: 0.752941; stroke: #231f20; stroke-linejoin: miter"/>
   </g>
   <g id="patch_16">
    <path d="M 174.9 -11.467546 
C 175.266343 -11.467546 175.61773 -11.612157 175.876773 -11.869529 
C 176.135817 -12.126901 176.281366 -12.476021 176.281366 -12.84 
C 176.281366 -13.203979 176.135817 -13.553099 175.876773 -13.810471 
C 175.61773 -14.067843 175.266343 -14.212454 174.9 -14.212454 
C 174.533657 -14.212454 174.18227 -14.067843 173.923227 -13.810471 
C 173.664183 -13.553099 173.518634 -13.203979 173.518634 -12.84 
C 173.518634 -12.476021 173.664183 -12.126901 173.923227 -11.869529 
C 174.18227 -11.612157 174.533657 -11.467546 174.9 -11.467546 
z
" clip-path="url(#p10e03a03c5)" style="fill: #0871b7; fill-opacity: 0.752941; stroke: #231f20; stroke-linejoin: miter"/>
   </g>
   <g id="patch_17">
    <path d="M 221.4 -2.84149 
C 224.068854 -2.84149 226.628758 -3.894996 228.515923 -5.769986 
C 230.403088 -7.644976 231.463435 -10.188364 231.463435 -12.84 
C 231.463435 -15.491636 230.403088 -18.035024 228.515923 -19.910014 
C 226.628758 -21.785004 224.068854 -22.83851 221.4 -22.83851 
C 218.731146 -22.83851 216.171242 -21.785004 214.284077 -19.910014 
C 212.396912 -18.035024 211.336565 -15.491636 211.336565 -12.84 
C 211.336565 -10.188364 212.396912 -7.644976 214.284077 -5.769986 
C 216.171242 -3.894996 218.731146 -2.84149 221.4 -2.84149 
z
" clip-path="url(#p10e03a03c5)" style="fill: #0871b7; fill-opacity: 0.752941; stroke: #231f20; stroke-linejoin: miter"/>
   </g>
   <g id="patch_18">
    <path d="M 360.9 37.241886 
C 361.936173 37.241886 362.930047 36.832866 363.662732 36.104908 
C 364.395417 35.37695 364.807093 34.389488 364.807093 33.36 
C 364.807093 32.330512 364.395417 31.34305 363.662732 30.615092 
C 362.930047 29.887134 361.936173 29.478114 360.9 29.478114 
C 359.863827 29.478114 358.869953 29.887134 358.137268 30.615092 
C 357.404583 31.34305 356.992907 32.330512 356.992907 33.36 
C 356.992907 34.389488 357.404583 35.37695 358.137268 36.104908 
C 358.869953 36.832866 359.863827 37.241886 360.9 37.241886 
z
" clip-path="url(#p10e03a03c5)" style="fill: #0871b7; fill-opacity: 0.752941; stroke: #231f20; stroke-linejoin: miter"/>
   </g>
   <g id="patch_19">
    <path d="M 314.4 36.510161 
C 315.240857 36.510161 316.047388 36.17824 316.641964 35.5875 
C 317.23654 34.99676 317.570616 34.195432 317.570616 33.36 
C 317.570616 32.524568 317.23654 31.72324 316.641964 31.1325 
C 316.047388 30.54176 315.240857 30.209839 314.4 30.209839 
C 313.559143 30.209839 312.752612 30.54176 312.158036 31.1325 
C 311.56346 31.72324 311.229384 32.524568 311.229384 33.36 
C 311.229384 34.195432 311.56346 34.99676 312.158036 35.5875 
C 312.752612 36.17824 313.559143 36.510161 314.4 36.510161 
z
" clip-path="url(#p10e03a03c5)" style="fill: #0871b7; fill-opacity: 0.752941; stroke: #231f20; stroke-linejoin: miter"/>
   </g>
   <g id="patch_20">
    <path d="M 128.4 37.241886 
C 129.436173 37.241886 130.430047 36.832866 131.162732 36.104908 
C 131.895417 35.37695 132.307093 34.389488 132.307093 33.36 
C 132.307093 32.330512 131.895417 31.34305 131.162732 30.615092 
C 130.430047 29.887134 129.436173 29.478114 128.4 29.478114 
C 127.363827 29.478114 126.369953 29.887134 125.637268 30.615092 
C 124.904583 31.34305 124.492907 32.330512 124.492907 33.36 
C 124.492907 34.389488 124.904583 35.37695 125.637268 36.104908 
C 126.369953 36.832866 127.363827 37.241886 128.4 37.241886 
z
" clip-path="url(#p10e03a03c5)" style="fill: #0871b7; fill-opacity: 0.752941; stroke: #231f20; stroke-linejoin: miter"/>
   </g>
   <g id="patch_21">
    <path d="M 81.9 358.45125 
C 82.351437 358.45125 82.784446 358.273049 83.10366 357.955894 
C 83.422874 357.638739 83.602232 357.208525 83.602232 356.76 
C 83.602232 356.311475 83.422874 355.881261 83.10366 355.564106 
C 82.784446 355.246951 82.351437 355.06875 81.9 355.06875 
C 81.448563 355.06875 81.015554 355.246951 80.69634 355.564106 
C 80.377126 355.881261 80.197768 356.311475 80.197768 356.76 
C 80.197768 357.208525 80.377126 357.638739 80.69634 357.955894 
C 81.015554 358.273049 81.448563 358.45125 81.9 358.45125 
z
" clip-path="url(#p10e03a03c5)" style="fill: #0871b7; fill-opacity: 0.752941; stroke: #231f20; stroke-linejoin: miter"/>
   </g>
   <g id="patch_22">
    <path d="M 360.9 81.25125 
C 361.351437 81.25125 361.784446 81.073049 362.10366 80.755894 
C 362.422874 80.438739 362.602232 80.008525 362.602232 79.56 
C 362.602232 79.111475 362.422874 78.681261 362.10366 78.364106 
C 361.784446 78.046951 361.351437 77.86875 360.9 77.86875 
C 360.448563 77.86875 360.015554 78.046951 359.69634 78.364106 
C 359.377126 78.681261 359.197768 79.111475 359.197768 79.56 
C 359.197768 80.008525 359.377126 80.438739 359.69634 80.755894 
C 360.015554 81.073049 360.448563 81.25125 360.9 81.25125 
z
" clip-path="url(#p10e03a03c5)" style="fill: #0871b7; fill-opacity: 0.752941; stroke: #231f20; stroke-linejoin: miter"/>
   </g>
   <g id="patch_23">
    <path d="M 81.9 81.25125 
C 82.351437 81.25125 82.784446 81.073049 83.10366 80.755894 
C 83.422874 80.438739 83.602232 80.008525 83.602232 79.56 
C 83.602232 79.111475 83.422874 78.681261 83.10366 78.364106 
C 82.784446 78.046951 82.351437 77.86875 81.9 77.86875 
C 81.448563 77.86875 81.015554 78.046951 80.69634 78.364106 
C 80.377126 78.681261 80.197768 79.111475 80.197768 79.56 
C 80.197768 80.008525 80.377126 80.438739 80.69634 80.755894 
C 81.015554 81.073049 81.448563 81.25125 81.9 81.25125 
z
" clip-path="url(#p10e03a03c5)" style="fill: #0871b7; fill-opacity: 0.752941; stroke: #231f20; stroke-linejoin: miter"/>
   </g>
   <g id="patch_24">
    <path d="M 267.9 36.895007 
C 268.843582 36.895007 269.748645 36.522536 270.415859 35.859627 
C 271.083072 35.196719 271.457962 34.297495 271.457962 33.36 
C 271.457962 32.422505 271.083072 31.523281 270.415859 30.860373 
C 269.748645 30.197464 268.843582 29.824993 267.9 29.824993 
C 266.956418 29.824993 266.051355 30.197464 265.384141 30.860373 
C 264.716928 31.523281 264.342038 32.422505 264.342038 33.36 
C 264.342038 34.297495 264.716928 35.196719 265.384141 35.859627 
C 266.051355 36.522536 266.956418 36.895007 267.9 36.895007 
z
" clip-path="url(#p10e03a03c5)" style="fill: #0871b7; fill-opacity: 0.752941; stroke: #231f20; stroke-linejoin: miter"/>
   </g>
   <g id="patch_25">
    <path d="M 174.9 36.510161 
C 175.740857 36.510161 176.547388 36.17824 177.141964 35.5875 
C 177.73654 34.99676 178.070616 34.195432 178.070616 33.36 
C 178.070616 32.524568 177.73654 31.72324 177.141964 31.1325 
C 176.547388 30.54176 175.740857 30.209839 174.9 30.209839 
C 174.059143 30.209839 173.252612 30.54176 172.658036 31.1325 
C 172.06346 31.72324 171.729384 32.524568 171.729384 33.36 
C 171.729384 34.195432 172.06346 34.99676 172.658036 35.5875 
C 173.252612 36.17824 174.059143 36.510161 174.9 36.510161 
z
" clip-path="url(#p10e03a03c5)" style="fill: #0871b7; fill-opacity: 0.752941; stroke: #231f20; stroke-linejoin: miter"/>
   </g>
   <g id="patch_26">
    <path d="M 221.4 36.895007 
C 222.343582 36.895007 223.248645 36.522536 223.915859 35.859627 
C 224.583072 35.196719 224.957962 34.297495 224.957962 33.36 
C 224.957962 32.422505 224.583072 31.523281 223.915859 30.860373 
C 223.248645 30.197464 222.343582 29.824993 221.4 29.824993 
C 220.456418 29.824993 219.551355 30.197464 218.884141 30.860373 
C 218.216928 31.523281 217.842038 32.422505 217.842038 33.36 
C 217.842038 34.297495 218.216928 35.196719 218.884141 35.859627 
C 219.551355 36.522536 220.456418 36.895007 221.4 36.895007 
z
" clip-path="url(#p10e03a03c5)" style="fill: #0871b7; fill-opacity: 0.752941; stroke: #231f20; stroke-linejoin: miter"/>
   </g>
   <g id="patch_27">
    <path d="M 81.9 314.441886 
C 82.936173 314.441886 83.930047 314.032866 84.662732 313.304908 
C 85.395417 312.57695 85.807093 311.589488 85.807093 310.56 
C 85.807093 309.530512 85.395417 308.54305 84.662732 307.815092 
C 83.930047 307.087134 82.936173 306.678114 81.9 306.678114 
C 80.863827 306.678114 79.869953 307.087134 79.137268 307.815092 
C 78.404583 308.54305 77.992907 309.530512 77.992907 310.56 
C 77.992907 311.589488 78.404583 312.57695 79.137268 313.304908 
C 79.869953 314.032866 80.863827 314.441886 81.9 314.441886 
z
" clip-path="url(#p10e03a03c5)" style="fill: #0871b7; fill-opacity: 0.752941; stroke: #231f20; stroke-linejoin: miter"/>
   </g>
   <g id="patch_28">
    <path d="M 314.4 88.47 
C 316.778304 88.47 319.059518 87.531186 320.741233 85.860321 
C 322.422947 84.189457 323.367857 81.92296 323.367857 79.56 
C 323.367857 77.19704 322.422947 74.930543 320.741233 73.259679 
C 319.059518 71.588814 316.778304 70.65 314.4 70.65 
C 312.021696 70.65 309.740482 71.588814 308.058767 73.259679 
C 306.377053 74.930543 305.432143 77.19704 305.432143 79.56 
C 305.432143 81.92296 306.377053 84.189457 308.058767 85.860321 
C 309.740482 87.531186 312.021696 88.47 314.4 88.47 
z
" clip-path="url(#p10e03a03c5)" style="fill: #0871b7; fill-opacity: 0.752941; stroke: #231f20; stroke-linejoin: miter"/>
   </g>
   <g id="patch_29">
    <path d="M 81.9 129.641886 
C 82.936173 129.641886 83.930047 129.232866 84.662732 128.504908 
C 85.395417 127.77695 85.807093 126.789488 85.807093 125.76 
C 85.807093 124.730512 85.395417 123.74305 84.662732 123.015092 
C 83.930047 122.287134 82.936173 121.878114 81.9 121.878114 
C 80.863827 121.878114 79.869953 122.287134 79.137268 123.015092 
C 78.404583 123.74305 77.992907 124.730512 77.992907 125.76 
C 77.992907 126.789488 78.404583 127.77695 79.137268 128.504908 
C 79.869953 129.232866 80.863827 129.641886 81.9 129.641886 
z
" clip-path="url(#p10e03a03c5)" style="fill: #0871b7; fill-opacity: 0.752941; stroke: #231f20; stroke-linejoin: miter"/>
   </g>
   <g id="patch_30">
    <path d="M 128.4 88.47 
C 130.778304 88.47 133.059518 87.531186 134.741233 85.860321 
C 136.422947 84.189457 137.367857 81.92296 137.367857 79.56 
C 137.367857 77.19704 136.422947 74.930543 134.741233 73.259679 
C 133.059518 71.588814 130.778304 70.65 128.4 70.65 
C 126.021696 70.65 123.740482 71.588814 122.058767 73.259679 
C 120.377053 74.930543 119.432143 77.19704 119.432143 79.56 
C 119.432143 81.92296 120.377053 84.189457 122.058767 85.860321 
C 123.740482 87.531186 126.021696 88.47 128.4 88.47 
z
" clip-path="url(#p10e03a03c5)" style="fill: #0871b7; fill-opacity: 0.752941; stroke: #231f20; stroke-linejoin: miter"/>
   </g>
   <g id="patch_31">
    <path d="M 81.9 265.732454 
C 82.266343 265.732454 82.61773 265.587843 82.876773 265.330471 
C 83.135817 265.073099 83.281366 264.723979 83.281366 264.36 
C 83.281366 263.996021 83.135817 263.646901 82.876773 263.389529 
C 82.61773 263.132157 82.266343 262.987546 81.9 262.987546 
C 81.533657 262.987546 81.18227 263.132157 80.923227 263.389529 
C 80.664183 263.646901 80.518634 263.996021 80.518634 264.36 
C 80.518634 264.723979 80.664183 265.073099 80.923227 265.330471 
C 81.18227 265.587843 81.533657 265.732454 81.9 265.732454 
z
" clip-path="url(#p10e03a03c5)" style="fill: #0871b7; fill-opacity: 0.752941; stroke: #231f20; stroke-linejoin: miter"/>
   </g>
   <g id="patch_32">
    <path d="M 267.9 80.67375 
C 268.197288 80.67375 268.48244 80.556398 268.692654 80.34754 
C 268.902868 80.138682 269.020982 79.85537 269.020982 79.56 
C 269.020982 79.26463 268.902868 78.981318 268.692654 78.77246 
C 268.48244 78.563602 268.197288 78.44625 267.9 78.44625 
C 267.602712 78.44625 267.31756 78.563602 267.107346 78.77246 
C 266.897132 78.981318 266.779018 79.26463 266.779018 79.56 
C 266.779018 79.85537 266.897132 80.138682 267.107346 80.34754 
C 267.31756 80.556398 267.602712 80.67375 267.9 80.67375 
z
" clip-path="url(#p10e03a03c5)" style="fill: #0871b7; fill-opacity: 0.752941; stroke: #231f20; stroke-linejoin: miter"/>
   </g>
   <g id="patch_33">
    <path d="M 81.9 173.332454 
C 82.266343 173.332454 82.61773 173.187843 82.876773 172.930471 
C 83.135817 172.673099 83.281366 172.323979 83.281366 171.96 
C 83.281366 171.596021 83.135817 171.246901 82.876773 170.989529 
C 82.61773 170.732157 82.266343 170.587546 81.9 170.587546 
C 81.533657 170.587546 81.18227 170.732157 80.923227 170.989529 
C 80.664183 171.246901 80.518634 171.596021 80.518634 171.96 
C 80.518634 172.323979 80.664183 172.673099 80.923227 172.930471 
C 81.18227 173.187843 81.533657 173.332454 81.9 173.332454 
z
" clip-path="url(#p10e03a03c5)" style="fill: #0871b7; fill-opacity: 0.752941; stroke: #231f20; stroke-linejoin: miter"/>
   </g>
   <g id="patch_34">
    <path d="M 174.9 80.67375 
C 175.197288 80.67375 175.48244 80.556398 175.692654 80.34754 
C 175.902868 80.138682 176.020982 79.85537 176.020982 79.56 
C 176.020982 79.26463 175.902868 78.981318 175.692654 78.77246 
C 175.48244 78.563602 175.197288 78.44625 174.9 78.44625 
C 174.602712 78.44625 174.31756 78.563602 174.107346 78.77246 
C 173.897132 78.981318 173.779018 79.26463 173.779018 79.56 
C 173.779018 79.85537 173.897132 80.138682 174.107346 80.34754 
C 174.31756 80.556398 174.602712 80.67375 174.9 80.67375 
z
" clip-path="url(#p10e03a03c5)" style="fill: #0871b7; fill-opacity: 0.752941; stroke: #231f20; stroke-linejoin: miter"/>
   </g>
   <g id="patch_35">
    <path d="M 81.9 222.516125 
C 83.06276 222.516125 84.178052 222.057136 85.000247 221.240246 
C 85.822442 220.423355 86.284412 219.315258 86.284412 218.16 
C 86.284412 217.004742 85.822442 215.896645 85.000247 215.079754 
C 84.178052 214.262864 83.06276 213.803875 81.9 213.803875 
C 80.73724 213.803875 79.621948 214.262864 78.799753 215.079754 
C 77.977558 215.896645 77.515588 217.004742 77.515588 218.16 
C 77.515588 219.315258 77.977558 220.423355 78.799753 221.240246 
C 79.621948 222.057136 80.73724 222.516125 81.9 222.516125 
z
" clip-path="url(#p10e03a03c5)" style="fill: #0871b7; fill-opacity: 0.752941; stroke: #231f20; stroke-linejoin: miter"/>
   </g>
   <g id="patch_36">
    <path d="M 221.4 90.78 
C 224.394901 90.78 227.267541 89.59779 229.385256 87.493738 
C 231.50297 85.389686 232.692857 82.535579 232.692857 79.56 
C 232.692857 76.584421 231.50297 73.730314 229.385256 71.626262 
C 227.267541 69.52221 224.394901 68.34 221.4 68.34 
C 218.405099 68.34 215.532459 69.52221 213.414744 71.626262 
C 211.29703 73.730314 210.107143 76.584421 210.107143 79.56 
C 210.107143 82.535579 211.29703 85.389686 213.414744 87.493738 
C 215.532459 89.59779 218.405099 90.78 221.4 90.78 
z
" clip-path="url(#p10e03a03c5)" style="fill: #0871b7; fill-opacity: 0.752941; stroke: #231f20; stroke-linejoin: miter"/>
   </g>
   <g id="patch_37">
    <path d="M 128.4 314.441886 
C 129.436173 314.441886 130.430047 314.032866 131.162732 313.304908 
C 131.895417 312.57695 132.307093 311.589488 132.307093 310.56 
C 132.307093 309.530512 131.895417 308.54305 131.162732 307.815092 
C 130.430047 307.087134 129.436173 306.678114 128.4 306.678114 
C 127.363827 306.678114 126.369953 307.087134 125.637268 307.815092 
C 124.904583 308.54305 124.492907 309.530512 124.492907 310.56 
C 124.492907 311.589488 124.904583 312.57695 125.637268 313.304908 
C 126.369953 314.032866 127.363827 314.441886 128.4 314.441886 
z
" clip-path="url(#p10e03a03c5)" style="fill: #0871b7; fill-opacity: 0.752941; stroke: #231f20; stroke-linejoin: miter"/>
   </g>
   <g id="patch_38">
    <path d="M 314.4 129.641886 
C 315.436173 129.641886 316.430047 129.232866 317.162732 128.504908 
C 317.895417 127.77695 318.307093 126.789488 318.307093 125.76 
C 318.307093 124.730512 317.895417 123.74305 317.162732 123.015092 
C 316.430047 122.287134 315.436173 121.878114 314.4 121.878114 
C 313.363827 121.878114 312.369953 122.287134 311.637268 123.015092 
C 310.904583 123.74305 310.492907 124.730512 310.492907 125.76 
C 310.492907 126.789488 310.904583 127.77695 311.637268 128.504908 
C 312.369953 129.232866 313.363827 129.641886 314.4 129.641886 
z
" clip-path="url(#p10e03a03c5)" style="fill: #0871b7; fill-opacity: 0.752941; stroke: #231f20; stroke-linejoin: miter"/>
   </g>
   <g id="patch_39">
    <path d="M 128.4 128.910161 
C 129.240857 128.910161 130.047388 128.57824 130.641964 127.9875 
C 131.23654 127.39676 131.570616 126.595432 131.570616 125.76 
C 131.570616 124.924568 131.23654 124.12324 130.641964 123.5325 
C 130.047388 122.94176 129.240857 122.609839 128.4 122.609839 
C 127.559143 122.609839 126.752612 122.94176 126.158036 123.5325 
C 125.56346 124.12324 125.229384 124.924568 125.229384 125.76 
C 125.229384 126.595432 125.56346 127.39676 126.158036 127.9875 
C 126.752612 128.57824 127.559143 128.910161 128.4 128.910161 
z
" clip-path="url(#p10e03a03c5)" style="fill: #0871b7; fill-opacity: 0.752941; stroke: #231f20; stroke-linejoin: miter"/>
   </g>
   <g id="patch_40">
    <path d="M 128.4 273.27 
C 130.778304 273.27 133.059518 272.331186 134.741233 270.660321 
C 136.422947 268.989457 137.367857 266.72296 137.367857 264.36 
C 137.367857 261.99704 136.422947 259.730543 134.741233 258.059679 
C 133.059518 256.388814 130.778304 255.45 128.4 255.45 
C 126.021696 255.45 123.740482 256.388814 122.058767 258.059679 
C 120.377053 259.730543 119.432143 261.99704 119.432143 264.36 
C 119.432143 266.72296 120.377053 268.989457 122.058767 270.660321 
C 123.740482 272.331186 126.021696 273.27 128.4 273.27 
z
" clip-path="url(#p10e03a03c5)" style="fill: #0871b7; fill-opacity: 0.752941; stroke: #231f20; stroke-linejoin: miter"/>
   </g>
   <g id="patch_41">
    <path d="M 128.4 181.95851 
C 131.068854 181.95851 133.628758 180.905004 135.515923 179.030014 
C 137.403088 177.155024 138.463435 174.611636 138.463435 171.96 
C 138.463435 169.308364 137.403088 166.764976 135.515923 164.889986 
C 133.628758 163.014996 131.068854 161.96149 128.4 161.96149 
C 125.731146 161.96149 123.171242 163.014996 121.284077 164.889986 
C 119.396912 166.764976 118.336565 169.308364 118.336565 171.96 
C 118.336565 174.611636 119.396912 177.155024 121.284077 179.030014 
C 123.171242 180.905004 125.731146 181.95851 128.4 181.95851 
z
" clip-path="url(#p10e03a03c5)" style="fill: #0871b7; fill-opacity: 0.752941; stroke: #231f20; stroke-linejoin: miter"/>
   </g>
   <g id="patch_42">
    <path d="M 174.9 129.295007 
C 175.843582 129.295007 176.748645 128.922536 177.415859 128.259627 
C 178.083072 127.596719 178.457962 126.697495 178.457962 125.76 
C 178.457962 124.822505 178.083072 123.923281 177.415859 123.260373 
C 176.748645 122.597464 175.843582 122.224993 174.9 122.224993 
C 173.956418 122.224993 173.051355 122.597464 172.384141 123.260373 
C 171.716928 123.923281 171.342038 124.822505 171.342038 125.76 
C 171.342038 126.697495 171.716928 127.596719 172.384141 128.259627 
C 173.051355 128.922536 173.956418 129.295007 174.9 129.295007 
z
" clip-path="url(#p10e03a03c5)" style="fill: #0871b7; fill-opacity: 0.752941; stroke: #231f20; stroke-linejoin: miter"/>
   </g>
   <g id="patch_43">
    <path d="M 267.9 128.910161 
C 268.740857 128.910161 269.547388 128.57824 270.141964 127.9875 
C 270.73654 127.39676 271.070616 126.595432 271.070616 125.76 
C 271.070616 124.924568 270.73654 124.12324 270.141964 123.5325 
C 269.547388 122.94176 268.740857 122.609839 267.9 122.609839 
C 267.059143 122.609839 266.252612 122.94176 265.658036 123.5325 
C 265.06346 124.12324 264.729384 124.924568 264.729384 125.76 
C 264.729384 126.595432 265.06346 127.39676 265.658036 127.9875 
C 266.252612 128.57824 267.059143 128.910161 267.9 128.910161 
z
" clip-path="url(#p10e03a03c5)" style="fill: #0871b7; fill-opacity: 0.752941; stroke: #231f20; stroke-linejoin: miter"/>
   </g>
   <g id="patch_44">
    <path d="M 128.4 221.310161 
C 129.240857 221.310161 130.047388 220.97824 130.641964 220.3875 
C 131.23654 219.79676 131.570616 218.995432 131.570616 218.16 
C 131.570616 217.324568 131.23654 216.52324 130.641964 215.9325 
C 130.047388 215.34176 129.240857 215.009839 128.4 215.009839 
C 127.559143 215.009839 126.752612 215.34176 126.158036 215.9325 
C 125.56346 216.52324 125.229384 217.324568 125.229384 218.16 
C 125.229384 218.995432 125.56346 219.79676 126.158036 220.3875 
C 126.752612 220.97824 127.559143 221.310161 128.4 221.310161 
z
" clip-path="url(#p10e03a03c5)" style="fill: #0871b7; fill-opacity: 0.752941; stroke: #231f20; stroke-linejoin: miter"/>
   </g>
   <g id="patch_45">
    <path d="M 221.4 129.295007 
C 222.343582 129.295007 223.248645 128.922536 223.915859 128.259627 
C 224.583072 127.596719 224.957962 126.697495 224.957962 125.76 
C 224.957962 124.822505 224.583072 123.923281 223.915859 123.260373 
C 223.248645 122.597464 222.343582 122.224993 221.4 122.224993 
C 220.456418 122.224993 219.551355 122.597464 218.884141 123.260373 
C 218.216928 123.923281 217.842038 124.822505 217.842038 125.76 
C 217.842038 126.697495 218.216928 127.596719 218.884141 128.259627 
C 219.551355 128.922536 220.456418 129.295007 221.4 129.295007 
z
" clip-path="url(#p10e03a03c5)" style="fill: #0871b7; fill-opacity: 0.752941; stroke: #231f20; stroke-linejoin: miter"/>
   </g>
   <g id="patch_46">
    <path d="M 174.9 265.732454 
C 175.266343 265.732454 175.61773 265.587843 175.876773 265.330471 
C 176.135817 265.073099 176.281366 264.723979 176.281366 264.36 
C 176.281366 263.996021 176.135817 263.646901 175.876773 263.389529 
C 175.61773 263.132157 175.266343 262.987546 174.9 262.987546 
C 174.533657 262.987546 174.18227 263.132157 173.923227 263.389529 
C 173.664183 263.646901 173.518634 263.996021 173.518634 264.36 
C 173.518634 264.723979 173.664183 265.073099 173.923227 265.330471 
C 174.18227 265.587843 174.533657 265.732454 174.9 265.732454 
z
" clip-path="url(#p10e03a03c5)" style="fill: #0871b7; fill-opacity: 0.752941; stroke: #231f20; stroke-linejoin: miter"/>
   </g>
   <g id="patch_47">
    <path d="M 267.9 173.332454 
C 268.266343 173.332454 268.61773 173.187843 268.876773 172.930471 
C 269.135817 172.673099 269.281366 172.323979 269.281366 171.96 
C 269.281366 171.596021 269.135817 171.246901 268.876773 170.989529 
C 268.61773 170.732157 268.266343 170.587546 267.9 170.587546 
C 267.533657 170.587546 267.18227 170.732157 266.923227 170.989529 
C 266.664183 171.246901 266.518634 171.596021 266.518634 171.96 
C 266.518634 172.323979 266.664183 172.673099 266.923227 172.930471 
C 267.18227 173.187843 267.533657 173.332454 267.9 173.332454 
z
" clip-path="url(#p10e03a03c5)" style="fill: #0871b7; fill-opacity: 0.752941; stroke: #231f20; stroke-linejoin: miter"/>
   </g>
   <g id="patch_48">
    <path d="M 174.9 173.07375 
C 175.197288 173.07375 175.48244 172.956398 175.692654 172.74754 
C 175.902868 172.538682 176.020982 172.25537 176.020982 171.96 
C 176.020982 171.66463 175.902868 171.381318 175.692654 171.17246 
C 175.48244 170.963602 175.197288 170.84625 174.9 170.84625 
C 174.602712 170.84625 174.31756 170.963602 174.107346 171.17246 
C 173.897132 171.381318 173.779018 171.66463 173.779018 171.96 
C 173.779018 172.25537 173.897132 172.538682 174.107346 172.74754 
C 174.31756 172.956398 174.602712 173.07375 174.9 173.07375 
z
" clip-path="url(#p10e03a03c5)" style="fill: #0871b7; fill-opacity: 0.752941; stroke: #231f20; stroke-linejoin: miter"/>
   </g>
   <g id="patch_49">
    <path d="M 174.9 221.310161 
C 175.740857 221.310161 176.547388 220.97824 177.141964 220.3875 
C 177.73654 219.79676 178.070616 218.995432 178.070616 218.16 
C 178.070616 217.324568 177.73654 216.52324 177.141964 215.9325 
C 176.547388 215.34176 175.740857 215.009839 174.9 215.009839 
C 174.059143 215.009839 173.252612 215.34176 172.658036 215.9325 
C 172.06346 216.52324 171.729384 217.324568 171.729384 218.16 
C 171.729384 218.995432 172.06346 219.79676 172.658036 220.3875 
C 173.252612 220.97824 174.059143 221.310161 174.9 221.310161 
z
" clip-path="url(#p10e03a03c5)" style="fill: #0871b7; fill-opacity: 0.752941; stroke: #231f20; stroke-linejoin: miter"/>
   </g>
   <g id="patch_50">
    <path d="M 221.4 181.95851 
C 224.068854 181.95851 226.628758 180.905004 228.515923 179.030014 
C 230.403088 177.155024 231.463435 174.611636 231.463435 171.96 
C 231.463435 169.308364 230.403088 166.764976 228.515923 164.889986 
C 226.628758 163.014996 224.068854 161.96149 221.4 161.96149 
C 218.731146 161.96149 216.171242 163.014996 214.284077 164.889986 
C 212.396912 166.764976 211.336565 169.308364 211.336565 171.96 
C 211.336565 174.611636 212.396912 177.155024 214.284077 179.030014 
C 216.171242 180.905004 218.731146 181.95851 221.4 181.95851 
z
" clip-path="url(#p10e03a03c5)" style="fill: #0871b7; fill-opacity: 0.752941; stroke: #231f20; stroke-linejoin: miter"/>
   </g>
   <g id="patch_51">
    <path d="M 221.4 222.516125 
C 222.56276 222.516125 223.678052 222.057136 224.500247 221.240246 
C 225.322442 220.423355 225.784412 219.315258 225.784412 218.16 
C 225.784412 217.004742 225.322442 215.896645 224.500247 215.079754 
C 223.678052 214.262864 222.56276 213.803875 221.4 213.803875 
C 220.23724 213.803875 219.121948 214.262864 218.299753 215.079754 
C 217.477558 215.896645 217.015588 217.004742 217.015588 218.16 
C 217.015588 219.315258 217.477558 220.423355 218.299753 221.240246 
C 219.121948 222.057136 220.23724 222.516125 221.4 222.516125 
z
" clip-path="url(#p10e03a03c5)" style="fill: #0871b7; fill-opacity: 0.752941; stroke: #231f20; stroke-linejoin: miter"/>
   </g>
  </g>
 </g>
 <defs>
  <clipPath id="p10e03a03c5">
   <rect x="54" y="51.84" width="334.8" height="332.64"/>
  </clipPath>
 </defs>
</svg>
